<svg width="604" height="260" viewBox="0 0 604 260" fill="none" xmlns="http://www.w3.org/2000/svg">
<rect x="0.5" y="0.5" width="603" height="259" rx="11.5" fill="#00283C" fill-opacity="0.06"/>
<rect x="0.5" y="0.5" width="603" height="259" rx="11.5" stroke="#E0E0E0"/>
<g filter="url(#filter0_d_1374_2573)">
<path d="M302 248C384.843 248 452 239.717 452 229.5V210L302 223.5L152 210.5V229.5C152 239.717 219.157 248 302 248Z" fill="url(#paint0_linear_1374_2573)"/>
</g>
<ellipse cx="302" cy="210.5" rx="150" ry="18.5" fill="url(#paint1_linear_1374_2573)"/>
<path d="M130.5 0L199 193H405L470 0H130.5Z" fill="url(#paint2_linear_1374_2573)"/>
<g filter="url(#filter1_d_1374_2573)">
<path d="M301.999 218.453C358.884 218.453 404.998 212.766 404.998 205.75V192.36L301.999 201.63L199 192.703V205.75C199 212.766 245.114 218.453 301.999 218.453Z" fill="url(#paint3_linear_1374_2573)"/>
</g>
<ellipse cx="301.999" cy="192.703" rx="102.999" ry="12.7032" fill="#BFECFF"/>
<g opacity="0.5" filter="url(#filter2_f_1374_2573)">
<ellipse cx="302" cy="193" rx="52" ry="4" fill="black"/>
</g>
<path d="M249 180.393C249 186.75 254.671 191.908 261.683 191.908H342.572C349.571 191.908 355.255 186.756 355.255 180.393V76.6298C355.255 70.2723 349.569 65.1185 342.572 65.1185H261.683C254.669 65.1185 249 70.2702 249 76.6298V180.393Z" fill="#001926"/>
<path d="M249 172.276C249 178.634 254.671 183.792 261.683 183.792H342.572C349.571 183.792 355.255 178.636 355.255 172.276V68.5113C355.257 62.1538 349.571 57 342.572 57H261.683C254.669 57 249 62.1517 249 68.5113V172.276Z" fill="#00283C"/>
<path d="M258.084 84.3528C258.037 84.0764 258.267 83.8442 258.548 83.8442H260.141C260.401 83.8442 260.606 84.0525 260.727 84.2821C260.997 84.7946 261.664 85.104 262.548 85.104C263.552 85.104 264.24 84.6206 264.24 83.9248C264.24 83.3389 263.779 83.0239 262.57 82.7822L261.179 82.5039C259.245 82.1377 258.249 81.083 258.249 79.4204C258.249 77.355 259.904 76 262.453 76C264.708 76 266.331 77.1117 266.635 78.7874C266.686 79.0634 266.456 79.2959 266.175 79.2959H264.666C264.405 79.2959 264.198 79.0865 264.082 78.8528C263.832 78.3511 263.234 78.0288 262.49 78.0288C261.545 78.0288 260.922 78.4756 260.922 79.1787C260.922 79.7573 261.391 80.0942 262.504 80.314L263.867 80.5776C265.954 80.9805 266.892 81.9253 266.892 83.6025C266.892 85.8071 265.207 87.1401 262.438 87.1401C259.995 87.1401 258.378 86.0881 258.084 84.3528Z" fill="white"/>
<path d="M280.079 86.3545C280.079 86.6306 279.855 86.8545 279.579 86.8545H278.096C277.82 86.8545 277.596 86.6306 277.596 86.3545V80.2608C277.596 80.2173 277.561 80.1821 277.518 80.1821C277.486 80.1821 277.457 80.2017 277.445 80.2315L275.239 85.7277C275.163 85.9173 274.98 86.0415 274.775 86.0415H273.789C273.585 86.0415 273.401 85.9175 273.325 85.7282L271.112 80.2314C271.1 80.2016 271.071 80.1821 271.039 80.1821C270.996 80.1821 270.961 80.2174 270.961 80.2608V86.3545C270.961 86.6306 270.737 86.8545 270.461 86.8545H268.978C268.702 86.8545 268.478 86.6306 268.478 86.3545V76.7856C268.478 76.5095 268.702 76.2856 268.978 76.2856H271.31C271.515 76.2856 271.699 76.4107 271.774 76.6012L274.187 82.681C274.202 82.72 274.24 82.7456 274.282 82.7456C274.324 82.7456 274.362 82.7199 274.377 82.6809L276.783 76.6017C276.858 76.4109 277.043 76.2856 277.248 76.2856H279.579C279.855 76.2856 280.079 76.5095 280.079 76.7856V86.3545Z" fill="white"/>
<path d="M289.243 86.8545C289.019 86.8545 288.823 86.7061 288.762 86.4911L288.309 84.8962C288.248 84.6811 288.052 84.5327 287.828 84.5327H285.131C284.909 84.5327 284.713 84.679 284.651 84.892L284.18 86.4952C284.118 86.7082 283.923 86.8545 283.701 86.8545H282.104C281.762 86.8545 281.521 86.5194 281.63 86.1955L284.84 76.6266C284.908 76.4229 285.099 76.2856 285.314 76.2856H287.883C288.098 76.2856 288.289 76.4228 288.357 76.6263L291.573 86.1952C291.682 86.5192 291.441 86.8545 291.099 86.8545H289.243ZM286.496 78.666C286.454 78.666 286.418 78.6931 286.407 78.7326L285.458 81.958C285.363 82.2782 285.603 82.5991 285.937 82.5991H287.036C287.369 82.5991 287.609 82.2802 287.516 81.9605L286.585 78.733C286.573 78.6933 286.537 78.666 286.496 78.666Z" fill="white"/>
<path d="M296.313 78.3145C296.036 78.3145 295.813 78.5383 295.813 78.8145V80.7588C295.813 81.0349 296.036 81.2588 296.313 81.2588H297.402C298.391 81.2588 298.977 80.7095 298.977 79.7939C298.977 78.8931 298.354 78.3145 297.395 78.3145H296.313ZM296.313 83.1558C296.036 83.1558 295.813 83.3796 295.813 83.6558V86.3545C295.813 86.6306 295.589 86.8545 295.313 86.8545H293.625C293.348 86.8545 293.125 86.6306 293.125 86.3545V76.7856C293.125 76.5095 293.348 76.2856 293.625 76.2856H297.775C300.244 76.2856 301.723 77.5894 301.723 79.772C301.723 80.8825 301.25 81.9123 300.387 82.5025C300.149 82.6655 300.033 82.9775 300.166 83.2341L301.655 86.1255C301.827 86.4583 301.585 86.8545 301.211 86.8545H299.325C299.134 86.8545 298.96 86.7457 298.876 86.5742L297.341 83.4361C297.257 83.2645 297.083 83.1558 296.892 83.1558H296.313Z" fill="white"/>
<path d="M308.561 86.3545C308.561 86.6306 308.337 86.8545 308.061 86.8545H306.38C306.104 86.8545 305.88 86.6306 305.88 86.3545V78.9463C305.88 78.6701 305.656 78.4463 305.38 78.4463H303.333C303.057 78.4463 302.833 78.2224 302.833 77.9463V76.7856C302.833 76.5095 303.057 76.2856 303.333 76.2856H311.115C311.391 76.2856 311.615 76.5095 311.615 76.7856V77.9463C311.615 78.2224 311.391 78.4463 311.115 78.4463H309.061C308.785 78.4463 308.561 78.6701 308.561 78.9463V86.3545Z" fill="white"/>
<path d="M263.112 105.14C259.948 105.14 258 103.016 258 99.5664C258 96.1167 259.941 94 263.112 94C265.577 94 267.487 95.5228 267.818 97.6526C267.861 97.932 267.631 98.1675 267.349 98.1675H265.723C265.471 98.1675 265.263 97.976 265.188 97.7344C264.907 96.8269 264.117 96.2412 263.112 96.2412C261.64 96.2412 260.739 97.501 260.739 99.5591C260.739 101.625 261.64 102.899 263.12 102.899C264.125 102.899 264.909 102.335 265.199 101.442C265.276 101.204 265.482 101.017 265.732 101.017H267.355C267.638 101.017 267.868 101.253 267.824 101.533C267.495 103.673 265.625 105.14 263.112 105.14Z" fill="white"/>
<path d="M274.088 94C277.267 94 279.288 96.1313 279.288 99.5664C279.288 103.009 277.267 105.14 274.088 105.14C270.895 105.14 268.873 103.009 268.873 99.5664C268.873 96.1313 270.917 94 274.088 94ZM274.088 96.2266C272.601 96.2266 271.613 97.5303 271.613 99.5664C271.613 101.61 272.587 102.914 274.088 102.914C275.575 102.914 276.556 101.61 276.556 99.5664C276.556 97.5303 275.568 96.2266 274.088 96.2266Z" fill="white"/>
<path d="M283.379 104.354C283.379 104.631 283.155 104.854 282.879 104.854H281.33C281.054 104.854 280.83 104.631 280.83 104.354V94.7856C280.83 94.5095 281.054 94.2856 281.33 94.2856H282.724C282.883 94.2856 283.032 94.3608 283.126 94.4882L287.351 100.195C287.368 100.219 287.396 100.233 287.425 100.233C287.476 100.233 287.517 100.191 287.517 100.14V94.7856C287.517 94.5095 287.741 94.2856 288.017 94.2856H289.566C289.842 94.2856 290.066 94.5095 290.066 94.7856V104.354C290.066 104.631 289.842 104.854 289.566 104.854H288.188C288.029 104.854 287.879 104.779 287.785 104.651L283.546 98.8863C283.529 98.8626 283.501 98.8486 283.472 98.8486C283.421 98.8486 283.379 98.89 283.379 98.941V104.354Z" fill="white"/>
<path d="M297.263 104.354C297.263 104.631 297.039 104.854 296.763 104.854H295.082C294.806 104.854 294.582 104.631 294.582 104.354V96.9463C294.582 96.6701 294.358 96.4463 294.082 96.4463H292.035C291.759 96.4463 291.535 96.2224 291.535 95.9463V94.7856C291.535 94.5095 291.759 94.2856 292.035 94.2856H299.817C300.093 94.2856 300.317 94.5095 300.317 94.7856V95.9463C300.317 96.2224 300.093 96.4463 299.817 96.4463H297.763C297.487 96.4463 297.263 96.6701 297.263 96.9463V104.354Z" fill="white"/>
<path d="M304.974 96.3145C304.698 96.3145 304.474 96.5383 304.474 96.8145V98.7588C304.474 99.0349 304.698 99.2588 304.974 99.2588H306.063C307.052 99.2588 307.638 98.7095 307.638 97.7939C307.638 96.8931 307.015 96.3145 306.056 96.3145H304.974ZM304.974 101.156C304.698 101.156 304.474 101.38 304.474 101.656V104.354C304.474 104.631 304.25 104.854 303.974 104.854H302.286C302.01 104.854 301.786 104.631 301.786 104.354V94.7856C301.786 94.5095 302.01 94.2856 302.286 94.2856H306.437C308.905 94.2856 310.385 95.5894 310.385 97.772C310.385 98.8825 309.912 99.9123 309.049 100.503C308.81 100.665 308.695 100.977 308.827 101.234L310.317 104.125C310.488 104.458 310.246 104.854 309.872 104.854H307.987C307.796 104.854 307.621 104.746 307.538 104.574L306.003 101.436C305.919 101.265 305.744 101.156 305.553 101.156H304.974Z" fill="white"/>
<path d="M319.197 104.854C318.973 104.854 318.777 104.706 318.716 104.491L318.263 102.896C318.202 102.681 318.005 102.533 317.782 102.533H315.084C314.862 102.533 314.667 102.679 314.605 102.892L314.134 104.495C314.072 104.708 313.876 104.854 313.654 104.854H312.058C311.716 104.854 311.475 104.519 311.584 104.195L314.793 94.6266C314.862 94.4229 315.053 94.2856 315.267 94.2856H317.837C318.052 94.2856 318.242 94.4228 318.311 94.6263L321.527 104.195C321.636 104.519 321.395 104.854 321.053 104.854H319.197ZM316.449 96.666C316.408 96.666 316.372 96.6931 316.36 96.7326L315.411 99.958C315.317 100.278 315.557 100.599 315.891 100.599H316.99C317.322 100.599 317.562 100.28 317.47 99.9605L316.538 96.733C316.527 96.6933 316.491 96.666 316.449 96.666Z" fill="white"/>
<path d="M327.238 105.14C324.074 105.14 322.126 103.016 322.126 99.5664C322.126 96.1167 324.067 94 327.238 94C329.703 94 331.613 95.5228 331.944 97.6526C331.987 97.932 331.758 98.1675 331.475 98.1675H329.85C329.597 98.1675 329.39 97.976 329.315 97.7344C329.033 96.8269 328.244 96.2412 327.238 96.2412C325.766 96.2412 324.865 97.501 324.865 99.5591C324.865 101.625 325.766 102.899 327.246 102.899C328.251 102.899 329.036 102.335 329.325 101.442C329.402 101.204 329.608 101.017 329.858 101.017H331.481C331.764 101.017 331.994 101.253 331.951 101.533C331.622 103.673 329.751 105.14 327.238 105.14Z" fill="white"/>
<path d="M338.5 104.354C338.5 104.631 338.276 104.854 338 104.854H336.319C336.043 104.854 335.819 104.631 335.819 104.354V96.9463C335.819 96.6701 335.595 96.4463 335.319 96.4463H333.272C332.996 96.4463 332.772 96.2224 332.772 95.9463V94.7856C332.772 94.5095 332.996 94.2856 333.272 94.2856H341.054C341.33 94.2856 341.554 94.5095 341.554 94.7856V95.9463C341.554 96.2224 341.33 96.4463 341.054 96.4463H339C338.724 96.4463 338.5 96.6701 338.5 96.9463V104.354Z" fill="white"/>
<rect x="259" y="120" width="76" height="5" rx="2.5" fill="white"/>
<rect x="259" y="138" width="90" height="5" rx="2.5" fill="white"/>
<rect x="259" y="129" width="70" height="5" rx="2.5" fill="white"/>
<rect x="259" y="147" width="58" height="5" rx="2.5" fill="white"/>
<defs>
<filter id="filter0_d_1374_2573" x="144" y="205" width="316" height="54" filterUnits="userSpaceOnUse" color-interpolation-filters="sRGB">
<feFlood flood-opacity="0" result="BackgroundImageFix"/>
<feColorMatrix in="SourceAlpha" type="matrix" values="0 0 0 0 0 0 0 0 0 0 0 0 0 0 0 0 0 0 127 0" result="hardAlpha"/>
<feOffset dy="3"/>
<feGaussianBlur stdDeviation="4"/>
<feComposite in2="hardAlpha" operator="out"/>
<feColorMatrix type="matrix" values="0 0 0 0 0 0 0 0 0 0 0 0 0 0 0 0 0 0 0.28 0"/>
<feBlend mode="normal" in2="BackgroundImageFix" result="effect1_dropShadow_1374_2573"/>
<feBlend mode="normal" in="SourceGraphic" in2="effect1_dropShadow_1374_2573" result="shape"/>
</filter>
<filter id="filter1_d_1374_2573" x="190" y="184.36" width="223.996" height="44.093" filterUnits="userSpaceOnUse" color-interpolation-filters="sRGB">
<feFlood flood-opacity="0" result="BackgroundImageFix"/>
<feColorMatrix in="SourceAlpha" type="matrix" values="0 0 0 0 0 0 0 0 0 0 0 0 0 0 0 0 0 0 127 0" result="hardAlpha"/>
<feOffset dy="1"/>
<feGaussianBlur stdDeviation="4.5"/>
<feComposite in2="hardAlpha" operator="out"/>
<feColorMatrix type="matrix" values="0 0 0 0 0 0 0 0 0 0 0 0 0 0 0 0 0 0 0.2 0"/>
<feBlend mode="normal" in2="BackgroundImageFix" result="effect1_dropShadow_1374_2573"/>
<feBlend mode="normal" in="SourceGraphic" in2="effect1_dropShadow_1374_2573" result="shape"/>
</filter>
<filter id="filter2_f_1374_2573" x="240" y="179" width="124" height="28" filterUnits="userSpaceOnUse" color-interpolation-filters="sRGB">
<feFlood flood-opacity="0" result="BackgroundImageFix"/>
<feBlend mode="normal" in="SourceGraphic" in2="BackgroundImageFix" result="shape"/>
<feGaussianBlur stdDeviation="5" result="effect1_foregroundBlur_1374_2573"/>
</filter>
<linearGradient id="paint0_linear_1374_2573" x1="152" y1="229" x2="452" y2="229" gradientUnits="userSpaceOnUse">
<stop stop-color="#006597"/>
<stop offset="1" stop-color="#002131"/>
</linearGradient>
<linearGradient id="paint1_linear_1374_2573" x1="152" y1="210.5" x2="452" y2="210.5" gradientUnits="userSpaceOnUse">
<stop stop-color="#0090BD"/>
<stop offset="0.475" stop-color="#00283C"/>
</linearGradient>
<linearGradient id="paint2_linear_1374_2573" x1="300.25" y1="-30.5" x2="300.25" y2="193" gradientUnits="userSpaceOnUse">
<stop offset="0.24" stop-color="#3DCAFF" stop-opacity="0"/>
<stop offset="1" stop-color="#0084C6" stop-opacity="0.72"/>
</linearGradient>
<linearGradient id="paint3_linear_1374_2573" x1="199" y1="205.406" x2="404.998" y2="205.406" gradientUnits="userSpaceOnUse">
<stop stop-color="#3AD0FF"/>
<stop offset="1" stop-color="#6A79FF"/>
</linearGradient>
</defs>
</svg>
