<svg width="22" height="22" viewBox="0 0 22 22" fill="none" xmlns="http://www.w3.org/2000/svg">
    <path
        d="M10.9987 0.333374C8.88904 0.333374 6.82674 0.958963 5.07262 2.13103C3.3185 3.3031 1.95132 4.96901 1.14399 6.91808C0.336653 8.86716 0.125417 11.0119 0.536993 13.081C0.948569 15.1501 1.96447 17.0508 3.45623 18.5425C4.94799 20.0343 6.84861 21.0502 8.91774 21.4618C10.9869 21.8733 13.1316 21.6621 15.0807 20.8548C17.0297 20.0474 18.6956 18.6802 19.8677 16.9261C21.0398 15.172 21.6654 13.1097 21.6654 11C21.6654 8.17106 20.5416 5.45796 18.5412 3.45757C16.5408 1.45718 13.8277 0.333374 10.9987 0.333374ZM16.0987 14.7267C15.432 16.7267 13.692 17.2867 12.1654 17.3934V18.7267C12.1654 18.9477 12.0776 19.1597 11.9213 19.316C11.765 19.4722 11.5531 19.56 11.332 19.56C11.111 19.56 10.8991 19.4722 10.7428 19.316C10.5865 19.1597 10.4987 18.9477 10.4987 18.7267V17.3934C8.9678 17.2498 7.51573 16.6481 6.33204 15.6667C6.25193 15.5919 6.18735 15.502 6.14199 15.4021C6.09662 15.3023 6.07136 15.1946 6.06765 15.085C6.06394 14.9754 6.08184 14.8662 6.12034 14.7635C6.15884 14.6609 6.21718 14.5668 6.29204 14.4867C6.36689 14.4066 6.45679 14.342 6.5566 14.2967C6.65641 14.2513 6.76418 14.226 6.87375 14.2223C6.98333 14.2186 7.09256 14.2365 7.19521 14.275C7.29786 14.3135 7.39193 14.3719 7.47204 14.4467C8.34434 15.1496 9.39424 15.5973 10.5054 15.74V11.5534C9.61983 11.4175 8.77266 11.0973 8.0187 10.6134C7.38468 10.2157 6.91009 9.60846 6.67745 8.89715C6.44481 8.18583 6.46884 7.41547 6.74537 6.72004C7.1387 5.71337 8.3587 4.56671 10.5054 4.38004V3.16671C10.5054 2.94569 10.5932 2.73373 10.7494 2.57745C10.9057 2.42117 11.1177 2.33337 11.3387 2.33337C11.5597 2.33337 11.7717 2.42117 11.928 2.57745C12.0842 2.73373 12.172 2.94569 12.172 3.16671V4.40671C13.3637 4.53873 14.495 5.00047 15.4387 5.74004C15.5695 5.89393 15.64 6.09009 15.637 6.29204C15.634 6.49399 15.5578 6.68798 15.4225 6.83794C15.2872 6.9879 15.102 7.08362 14.9015 7.10731C14.7009 7.13099 14.4985 7.08103 14.332 6.96671C13.6955 6.50116 12.9533 6.20106 12.172 6.09337V10.18C12.572 10.2667 12.9987 10.36 13.4454 10.5C13.962 10.6289 14.4468 10.8621 14.8699 11.1855C15.293 11.5088 15.6454 11.9153 15.9054 12.38C16.2766 13.1062 16.3461 13.9496 16.0987 14.7267Z"
        fill="#0F172A" />
</svg>
    