<svg width="40" height="40" viewBox="0 0 40 40" fill="none" xmlns="http://www.w3.org/2000/svg">
<circle cx="20" cy="20" r="20" fill="#00283C"/>
<g clip-path="url(#clip0_896_599)">
<path d="M15 21.25H20V23.75H15V21.25Z" fill="white"/>
<path d="M30 12.5H28.75V10H16.25V12.5H13.75V14.0625L13 15H11.25V17.1875L10 18.75V30H25L30 23.75V12.5ZM12.5 16.25H22.5V18.75H12.5V16.25ZM23.75 28.75H11.25V20H23.75V28.75ZM25 18.75H23.75V15H15V13.75H25V18.75ZM27.5 15.625L26.25 17.1875V12.5H17.5V11.25H27.5V15.625Z" fill="white"/>
</g>
<defs>
<clipPath id="clip0_896_599">
<rect width="20" height="20" fill="white" transform="translate(10 10)"/>
</clipPath>
</defs>
</svg>
