<svg width="56" height="59" viewBox="0 0 56 59" fill="none" xmlns="http://www.w3.org/2000/svg">
<path d="M37.3346 56.1666V54.8333C37.3346 51.8866 39.82 49.4999 42.46 48.1959C45.028 46.9266 47.1853 44.8359 47.46 42.3826L48.0013 37.4999L53.3346 34.8333L46.668 24.8333C46.6677 21.0554 45.6945 17.3412 43.8423 14.0485C41.99 10.7559 39.321 7.99569 36.0924 6.03385C32.8639 4.07201 29.1845 2.97464 25.4087 2.84744C21.633 2.72023 17.8881 3.56749 14.5348 5.30759C11.1815 7.04769 8.33279 9.622 6.26311 12.7825C4.19344 15.9431 2.97252 19.5833 2.71797 23.3526C2.46342 27.122 3.18382 30.8933 4.80976 34.3034C6.43571 37.7135 8.91242 40.6475 12.0013 42.8226M12.0013 42.8226V56.1666M12.0013 42.8226C14.0013 44.2359 16.252 45.3213 18.668 46.0066" stroke="#00283C" stroke-width="4" stroke-linecap="round" stroke-linejoin="round"/>
<path d="M26.156 29.4997L22.26 17.4437C22.1251 17.0637 21.874 16.7359 21.5423 16.5066C21.2106 16.2773 20.8151 16.1583 20.412 16.1664C20.0088 16.1583 19.6134 16.2773 19.2817 16.5066C18.95 16.7359 18.6989 17.0637 18.564 17.4437L14.668 29.4997M33.3346 16.1664V29.4997M16.1026 25.4997H24.7186" stroke="#00283C" stroke-width="4" stroke-linecap="round" stroke-linejoin="round"/>
</svg>
